<svg xmlns="http://www.w3.org/2000/svg" viewBox="0 0 258.94 294.48">
  <g>
    <g>
      <path fill="#ffffff" d="m229.67,0c-15.56.4-27.77,13.58-27.77,29.15v28.32h50.04c3.87,0,7-3.13,7-7v-21.96C258.94,12.52,245.76-.4,229.67,0Z"/>
      <path fill="#ffffff" d="m57.04,0C25.54,0,0,25.54,0,57.04c0,.15.01.3.01.44h-.01v229.99c0,5.2,5.47,8.58,10.12,6.27l81.25-40.47c1.97-.98,4.28-.98,6.24,0l81.25,40.47c4.65,2.32,10.12-1.07,10.12-6.27V28.52c0-.23.03-.46.04-.7v-.86c0-11.25,5.91-21.38,14.86-26.96H57.04Zm84.34,113.01l-20.55,18.38,5.82,26.94c1.03,4.78-4.1,8.51-8.33,6.05l-23.83-13.86-23.83,13.86c-4.23,2.46-9.36-1.27-8.33-6.05l5.82-26.94-20.55-18.38c-3.64-3.26-1.68-9.3,3.18-9.79l27.42-2.79,11.13-25.22c1.97-4.47,8.32-4.47,10.29,0l11.13,25.22,27.42,2.79c4.86.49,6.82,6.53,3.18,9.79Z"/>
    </g>
  </g>
</svg>